<svg width="42" height="42" viewBox="0 0 42 42" fill="none" xmlns="http://www.w3.org/2000/svg">
<path d="M5.54785 13.02L21.0003 21.9625L36.3478 13.0725" stroke="white" stroke-width="1.5" stroke-linecap="round" stroke-linejoin="round"/>
<path d="M21.0005 37.8175V21.9449" stroke="white" stroke-width="1.5" stroke-linecap="round" stroke-linejoin="round"/>
<path d="M37.8176 16.0475V25.9526C37.8176 26.0401 37.8176 26.11 37.8001 26.1975C36.5751 25.13 35.0001 24.5 33.2501 24.5C31.6051 24.5 30.0826 25.0775 28.8751 26.04C27.2651 27.3175 26.2501 29.295 26.2501 31.5C26.2501 32.8125 26.6176 34.055 27.2651 35.105C27.4226 35.385 27.6151 35.6476 27.8251 35.8926L24.6226 37.6601C22.6276 38.7801 19.3726 38.7801 17.3776 37.6601L8.03259 32.48C5.91509 31.3075 4.18262 28.3676 4.18262 25.9526V16.0475C4.18262 13.6325 5.91509 10.6925 8.03259 9.52004L17.3776 4.34C19.3726 3.22 22.6276 3.22 24.6226 4.34L33.9676 9.52004C36.0851 10.6925 37.8176 13.6325 37.8176 16.0475Z" stroke="white" stroke-width="1.5" stroke-linecap="round" stroke-linejoin="round"/>
<path d="M40.25 31.5C40.25 33.6 39.3225 35.4725 37.87 36.75C36.6275 37.835 35.0175 38.5 33.25 38.5C29.3825 38.5 26.25 35.3675 26.25 31.5C26.25 29.295 27.265 27.3175 28.875 26.04C30.0825 25.0775 31.605 24.5 33.25 24.5C37.1175 24.5 40.25 27.6325 40.25 31.5Z" stroke="white" stroke-width="1.5" stroke-miterlimit="10" stroke-linecap="round" stroke-linejoin="round"/>
<path d="M33.6875 29.3125V31.9375L31.5 33.25" stroke="white" stroke-width="1.5" stroke-miterlimit="10" stroke-linecap="round" stroke-linejoin="round"/>
</svg>
