<svg width="90" height="90" viewBox="0 0 90 90" fill="none" xmlns="http://www.w3.org/2000/svg">
<path d="M15.1876 15.75H27.0001L27.0001 18.75V24.5625V27.5625L15.1876 27.5625V24.5625V18.75L15.1876 15.75Z" stroke="white" stroke-width="5.625"/>
<path d="M38.8126 15.75H50.6252L50.6252 18.75V24.5625V27.5625L38.8126 27.5625V24.5625V18.75L38.8126 15.75Z" stroke="#FFA722" stroke-width="5.625"/>
<path d="M38.8126 61.875H50.6252L50.6252 64.875V70.6875V73.6875L38.8126 73.6875V70.6875V64.875L38.8126 61.875Z" stroke="#FFA722" stroke-width="5.625"/>
<path d="M62.4375 15.75H74.25L74.25 18.75V24.5625V27.5625L62.4375 27.5625V24.5625V18.75L62.4375 15.75Z" stroke="white" stroke-width="5.625"/>
<path d="M21.3749 30.3751V43.6876C21.3749 44.3089 21.8786 44.8126 22.4999 44.8126H44.7187M68.0624 30.3751V43.6876C68.0624 44.3089 67.5588 44.8126 66.9374 44.8126H44.7187M44.7187 44.8126V59.0626M44.7187 44.8126V30.3751" stroke="white" stroke-width="5.625"/>
</svg>
