<svg width="24" height="24" viewBox="0 0 24 24" fill="none" xmlns="http://www.w3.org/2000/svg">
<path d="M20 7V17C20 21 19 22 15 22H9C5 22 4 21 4 17V7C4 3 5 2 9 2H15C19 2 20 3 20 7Z" stroke="#FFA722" stroke-width="1.5" stroke-linecap="round" stroke-linejoin="round"/>
<path d="M14 5.5H10" stroke="#FFA722" stroke-width="1.5" stroke-linecap="round" stroke-linejoin="round"/>
<path d="M11.9997 19.1C12.8557 19.1 13.5497 18.406 13.5497 17.55C13.5497 16.694 12.8557 16 11.9997 16C11.1437 16 10.4497 16.694 10.4497 17.55C10.4497 18.406 11.1437 19.1 11.9997 19.1Z" stroke="#FFA722" stroke-width="1.5" stroke-linecap="round" stroke-linejoin="round"/>
</svg>
