<svg width="16" height="16" viewBox="0 0 16 16" fill="none" xmlns="http://www.w3.org/2000/svg">
<path d="M13.3333 4.66667V11.3333C13.3333 14 12.6667 14.6667 9.99999 14.6667H5.99999C3.33332 14.6667 2.66666 14 2.66666 11.3333V4.66667C2.66666 2 3.33332 1.33334 5.99999 1.33334H9.99999C12.6667 1.33334 13.3333 2 13.3333 4.66667Z" stroke="#FFA722" stroke-linecap="round" stroke-linejoin="round"/>
<path d="M9.33332 3.66667H6.66666" stroke="#FFA722" stroke-linecap="round" stroke-linejoin="round"/>
<path d="M8.00001 12.7333C8.5707 12.7333 9.03334 12.2707 9.03334 11.7C9.03334 11.1293 8.5707 10.6667 8.00001 10.6667C7.42931 10.6667 6.96667 11.1293 6.96667 11.7C6.96667 12.2707 7.42931 12.7333 8.00001 12.7333Z" stroke="#FFA722" stroke-linecap="round" stroke-linejoin="round"/>
</svg>
